<?xml version="1.0" encoding="UTF-8" standalone="no"?>
<!-- Created with Inkscape (http://www.inkscape.org/) -->

<svg
   xmlns:dc="http://purl.org/dc/elements/1.1/"
   xmlns:cc="http://creativecommons.org/ns#"
   xmlns:rdf="http://www.w3.org/1999/02/22-rdf-syntax-ns#"
   xmlns:svg="http://www.w3.org/2000/svg"
   xmlns="http://www.w3.org/2000/svg"
   xmlns:sodipodi="http://sodipodi.sourceforge.net/DTD/sodipodi-0.dtd"
   xmlns:inkscape="http://www.inkscape.org/namespaces/inkscape"
   width="512"
   height="512"
   id="svg2"
   version="1.1"
   inkscape:version="0.48.1 r9760"
   sodipodi:docname="menu_icon_settings.svg">
  <defs
     id="defs4" />
  <sodipodi:namedview
     id="base"
     pagecolor="#000000"
     bordercolor="#666666"
     borderopacity="1.0"
     inkscape:pageopacity="1"
     inkscape:pageshadow="2"
     inkscape:zoom="0.35"
     inkscape:cx="224.06368"
     inkscape:cy="371.9214"
     inkscape:document-units="px"
     inkscape:current-layer="layer1"
     showgrid="false"
     inkscape:window-width="1228"
     inkscape:window-height="752"
     inkscape:window-x="51"
     inkscape:window-y="0"
     inkscape:window-maximized="0" />
  <metadata
     id="metadata7">
    <rdf:RDF>
      <cc:Work
         rdf:about="">
        <dc:format>image/svg+xml</dc:format>
        <dc:type
           rdf:resource="http://purl.org/dc/dcmitype/StillImage" />
        <dc:title />
      </cc:Work>
    </rdf:RDF>
  </metadata>
  <g
     inkscape:label="Layer 1"
     inkscape:groupmode="layer"
     id="layer1"
     transform="translate(0,-540.36218)">
    <path
       style="fill:#ffffff;stroke:#000000;stroke-width:13.90182209;stroke-linecap:butt;stroke-linejoin:miter;stroke-miterlimit:4;stroke-opacity:1;stroke-dasharray:none"
       d="M 255,595.3131 C 143.41007,595.3131 52.950911,685.77225 52.950911,797.36216 52.950911,908.95207 143.41007,999.41127 255,999.41127 366.58993,999.41127 457.04908,908.95207 457.04908,797.36216 457.04908,685.77225 366.58993,595.3131 255,595.3131 z M 371.58069,783.01549 C 351.40915,806.21762 320.06053,813.89144 292.54883,805.06378 L 192.62253,919.9762 C 181.97373,932.20978 163.4426,933.46097 151.209,922.82614 138.97539,912.19121 137.68251,893.64618 148.31742,881.41257 L 248.38274,766.375 C 235.96841,740.44811 239.24924,708.48783 259.32347,685.4108 278.32725,663.51544 307.32646,655.50799 333.67042,662.13915 L 295.38479,706.79181 307.91033,743.22848 345.7511,750.58254 384.13403,705.81868 C 394.53259,731.03658 390.70959,761.0367 371.58069,783.01549 z"
       id="path2985"
       inkscape:connector-curvature="0" />
  </g>
</svg>
