<?xml version="1.0" encoding="UTF-8" standalone="no"?>
<!-- Created with Inkscape (http://www.inkscape.org/) -->

<svg
   xmlns:dc="http://purl.org/dc/elements/1.1/"
   xmlns:cc="http://creativecommons.org/ns#"
   xmlns:rdf="http://www.w3.org/1999/02/22-rdf-syntax-ns#"
   xmlns:svg="http://www.w3.org/2000/svg"
   xmlns="http://www.w3.org/2000/svg"
   xmlns:sodipodi="http://sodipodi.sourceforge.net/DTD/sodipodi-0.dtd"
   xmlns:inkscape="http://www.inkscape.org/namespaces/inkscape"
   width="512"
   height="512"
   id="svg2"
   version="1.1"
   inkscape:version="0.48.1 r9760"
   sodipodi:docname="icon_skull.svg">
  <defs
     id="defs4" />
  <sodipodi:namedview
     id="base"
     pagecolor="#000000"
     bordercolor="#666666"
     borderopacity="1.0"
     inkscape:pageopacity="1"
     inkscape:pageshadow="2"
     inkscape:zoom="0.35"
     inkscape:cx="109.77797"
     inkscape:cy="486.20712"
     inkscape:document-units="px"
     inkscape:current-layer="layer1"
     showgrid="false"
     inkscape:window-width="1228"
     inkscape:window-height="752"
     inkscape:window-x="51"
     inkscape:window-y="0"
     inkscape:window-maximized="0" />
  <metadata
     id="metadata7">
    <rdf:RDF>
      <cc:Work
         rdf:about="">
        <dc:format>image/svg+xml</dc:format>
        <dc:type
           rdf:resource="http://purl.org/dc/dcmitype/StillImage" />
        <dc:title />
      </cc:Work>
    </rdf:RDF>
  </metadata>
  <g
     inkscape:label="Layer 1"
     inkscape:groupmode="layer"
     id="layer1"
     transform="translate(0,-540.36218)">
    <path
       style="fill:#ffffff;stroke:#000000;stroke-width:1;stroke-linecap:butt;stroke-linejoin:miter;stroke-opacity:1;stroke-miterlimit:4;stroke-dasharray:none"
       d="M 428.34868,724.44074 C 428.34868,639.08712 362.70854,569.2733 253.26981,569.2733 143.84756,569.2733 83.651316,639.08712 83.651316,724.44074 83.651316,809.79438 107.71992,798.85711 107.71992,847.01082 107.71992,865.07463 90.216981,856.31493 90.216981,895.16451 90.216981,937.84133 149.85235,931.83656 167.37177,949.32299 184.87471,966.84244 183.22506,999.1264 183.22506,999.1264 183.22506,999.1264 186.5079,1012.2577 192.52917,1008.414 192.52917,1008.414 196.35639,1017.7181 200.74449,1012.2412 200.74449,1012.2412 205.11609,1021.5288 209.50421,1013.8909 209.50421,1013.8909 213.87582,1024.3002 220.98587,1016.6293 220.98587,1016.6293 228.09592,1027.0222 236.31126,1018.8234 236.31126,1018.8234 245.61536,1027.5666 256.00825,1021.0174 266.40113,1027.5666 275.70524,1018.8234 275.70524,1018.8234 283.90407,1027.0222 291.03061,1016.6293 291.03061,1016.6293 298.15717,1024.3002 302.49578,1013.8909 302.49578,1013.8909 306.91689,1021.5453 311.25551,1012.2412 311.25551,1012.2412 315.64362,1017.7181 319.47084,1008.414 319.47084,1008.414 325.49212,1012.2412 328.77495,999.1264 328.77495,999.1264 328.77495,999.1264 327.12528,966.84244 344.62822,949.32299 362.14764,931.82006 421.76653,937.84133 421.76653,895.16451 421.76653,856.33142 404.26359,865.07463 404.26359,847.01082 404.28008,798.85711 428.34868,809.79438 428.34868,724.44074 z M 170.77009,886.96568 C 141.35657,891.66724 128.04378,883.41891 124.82694,862.35269 116.44664,807.45187 166.97586,798.57666 192.11676,801.59556 204.1758,803.04725 224.94508,815.81566 224.94508,831.70192 224.94508,874.37874 198.13803,882.59408 170.77009,886.96568 z M 271.86152,958.08272 C 266.40113,958.08272 257.64141,950.97266 257.09703,937.84133 256.55264,950.97266 246.70414,958.08272 241.24376,958.08272 235.76687,958.08272 227.55153,952.62233 227.00715,939.491 226.46276,926.35967 243.9657,873.28997 256.56914,873.28997 269.13958,873.28997 286.659,926.35967 286.11462,939.491 285.57023,952.62233 277.35489,958.08272 271.86152,958.08272 z M 385.68836,862.35269 C 382.47152,883.41891 369.12572,891.66724 339.71222,886.96568 312.36079,882.57757 285.55374,874.37874 285.55374,831.70192 285.55374,815.81566 306.30652,803.04725 318.38207,801.59556 343.52294,798.57666 394.06866,807.45187 385.68836,862.35269 z"
       id="path2985"
       inkscape:connector-curvature="0" />
  </g>
</svg>
