<?xml version="1.0" encoding="UTF-8" standalone="no"?>
<!-- Created with Inkscape (http://www.inkscape.org/) -->

<svg
   xmlns:dc="http://purl.org/dc/elements/1.1/"
   xmlns:cc="http://creativecommons.org/ns#"
   xmlns:rdf="http://www.w3.org/1999/02/22-rdf-syntax-ns#"
   xmlns:svg="http://www.w3.org/2000/svg"
   xmlns="http://www.w3.org/2000/svg"
   xmlns:xlink="http://www.w3.org/1999/xlink"
   xmlns:sodipodi="http://sodipodi.sourceforge.net/DTD/sodipodi-0.dtd"
   xmlns:inkscape="http://www.inkscape.org/namespaces/inkscape"
   width="1027"
   height="1492"
   id="svg3172"
   version="1.1"
   inkscape:version="0.48.1 r9760"
   sodipodi:docname="Fragtemple.svg">
  <defs
     id="defs3174" />
  <sodipodi:namedview
     id="base"
     pagecolor="#ffffff"
     bordercolor="#666666"
     borderopacity="1.0"
     inkscape:pageopacity="0.0"
     inkscape:pageshadow="2"
     inkscape:zoom="1.4142136"
     inkscape:cx="456.11652"
     inkscape:cy="1097.1977"
     inkscape:current-layer="svg3172"
     inkscape:document-units="px"
     showgrid="false"
     inkscape:window-width="1228"
     inkscape:window-height="756"
     inkscape:window-x="52"
     inkscape:window-y="0"
     inkscape:window-maximized="1" />
  <metadata
     id="metadata3177">
    <rdf:RDF>
      <cc:Work
         rdf:about="">
        <dc:format>image/svg+xml</dc:format>
        <dc:type
           rdf:resource="http://purl.org/dc/dcmitype/StillImage" />
        <dc:title></dc:title>
      </cc:Work>
    </rdf:RDF>
  </metadata>
  <image
     y="0"
     x="0"
     id="map"
     xlink:href="file:///Users/seb/dev/FinalFighter-mac/FinalFighter-mac/Fragtemple.png"
     height="1492"
     width="1027"
     style="opacity:0.75" />
  <path
     style="fill:none;stroke:#000000;stroke-width:1px;stroke-linecap:butt;stroke-linejoin:miter;stroke-opacity:1"
     d="M 68.053824,1310.401 65.553824,1185.401 101.05382,1184.901 107.55382,1285.901 159.55382,1291.401 195.05382,1280.401 218.55382,1301.901 207.55382,1322.901 114.55382,1332.401 z"
     id="path3273"
     inkscape:connector-curvature="0" />
  <path
     style="fill:none;stroke:#000000;stroke-width:1px;stroke-linecap:butt;stroke-linejoin:miter;stroke-opacity:1"
     d="M 362.74578,1218.3497 366.28131,1105.2126 192.33304,1098.8486 188.79751,1018.9456 247.48737,1014.7029 245.36605,1001.2679 177.4838,1012.5816 181.72644,1215.5212 z"
     id="path3340"
     inkscape:connector-curvature="0" />
  <path
     style="fill:none;stroke:#000000;stroke-width:1px;stroke-linecap:butt;stroke-linejoin:miter;stroke-opacity:1"
     d="M 149.90664,710.64701 254.55844,711.35411 255.26555,804.69221 149.90664,806.10642 z"
     id="path3342"
     inkscape:connector-curvature="0" />
  <path
     style="fill:none;stroke:#000000;stroke-width:1px;stroke-linecap:butt;stroke-linejoin:miter;stroke-opacity:1"
     d="M 692.96465,1276.3324 727.61288,1277.0395 737.51237,1294.7172 728.31999,1325.8299 695.79307,1327.2441 683.06515,1301.7883 z"
     id="path3344"
     inkscape:connector-curvature="0" />
  <path
     style="fill:none;stroke:#000000;stroke-width:1px;stroke-linecap:butt;stroke-linejoin:miter;stroke-opacity:1"
     d="M 703.57125,1244.5126 717.00628,1251.5837 745.99765,1250.1695 751.65451,1221.1781 732.56263,1202.0862 702.86414,1219.0568 z"
     id="path3346"
     inkscape:connector-curvature="0" />
  <path
     style="fill:none;stroke:#000000;stroke-width:1px;stroke-linecap:butt;stroke-linejoin:miter;stroke-opacity:1"
     d="M 748.82608,1294.7172 760.13979,1306.0309 803.2733,1300.3741 808.22305,1265.0187 787.71695,1245.9268 760.13979,1248.7553 746.70476,1273.504 z"
     id="path3348"
     inkscape:connector-curvature="0" />
  <path
     style="fill:none;stroke:#000000;stroke-width:1px;stroke-linecap:butt;stroke-linejoin:miter;stroke-opacity:1"
     d="M 772.86771,1205.6218 778.52457,1182.9943 769.33218,1160.3669 743.16923,1159.6598 729.7342,1188.6512 748.11898,1204.9146 z"
     id="path3350"
     inkscape:connector-curvature="0" />
  <path
     style="fill:none;stroke:#000000;stroke-width:1px;stroke-linecap:butt;stroke-linejoin:miter;stroke-opacity:1"
     d="M 821.65808,1284.8177 850.64946,1261.4832 871.15556,1280.5751 863.37738,1306.0309 836.50732,1309.5665 z"
     id="path3352"
     inkscape:connector-curvature="0" />
  <path
     style="fill:none;stroke:#000000;stroke-width:1px;stroke-linecap:butt;stroke-linejoin:miter;stroke-opacity:1"
     d="M 884.59058,1281.9893 911.46064,1278.4538 922.06724,1303.2025 904.38957,1315.9304 881.76216,1300.3741 z"
     id="path3354"
     inkscape:connector-curvature="0" />
  <path
     style="fill:none;stroke:#000000;stroke-width:1px;stroke-linecap:butt;stroke-linejoin:miter;stroke-opacity:1"
     d="M 860.54895,1253.705 880.34794,1260.069 897.31851,1245.2197 888.12612,1225.4207 859.84185,1242.3913 z"
     id="path3356"
     inkscape:connector-curvature="0" />
  <path
     style="fill:none;stroke:#000000;stroke-width:1px;stroke-linecap:butt;stroke-linejoin:miter;stroke-opacity:1"
     d="M 906.51089,1234.6131 929.84542,1239.5629 940.45202,1224.0065 924.89567,1198.5507 905.09668,1198.5507 896.6114,1221.1781 z"
     id="path3358"
     inkscape:connector-curvature="0" />
  <path
     style="fill:none;stroke:#000000;stroke-width:1px;stroke-linecap:butt;stroke-linejoin:miter;stroke-opacity:1"
     d="M 783.47431,1190.7725 803.2733,1208.4502 827.31493,1201.3791 834.386,1173.0948 811.05148,1157.5385 792.6667,1157.5385 z"
     id="path3360"
     inkscape:connector-curvature="0" />
  <path
     style="fill:none;stroke:#000000;stroke-width:1px;stroke-linecap:butt;stroke-linejoin:miter;stroke-opacity:1"
     d="M 842.87128,1190.0654 857.01342,1214.8141 883.17637,1210.5715 886.7119,1185.8228 870.44845,1168.1451 846.40682,1178.0446 z"
     id="path3362"
     inkscape:connector-curvature="0" />
  <path
     style="fill:none;stroke:#000000;stroke-width:1px;stroke-linecap:butt;stroke-linejoin:miter;stroke-opacity:1"
     d="M 890.24744,1176.6304 890.24744,1158.9527 914.99618,1149.0532 930.55252,1166.7309 930.55252,1182.9943 909.33932,1192.8938 z"
     id="path3364"
     inkscape:connector-curvature="0" />
  <path
     style="fill:none;stroke:#000000;stroke-width:1px;stroke-linecap:butt;stroke-linejoin:miter;stroke-opacity:1"
     d="M 860.54895,1132.7898 888.12612,1146.2248 908.63221,1125.0116 908.63221,1100.2628 887.41901,1087.5349 859.13474,1106.6268 z"
     id="path3366"
     inkscape:connector-curvature="0" />
  <path
     style="fill:none;stroke:#000000;stroke-width:1px;stroke-linecap:butt;stroke-linejoin:miter;stroke-opacity:1"
     d="M 892.36876,1083.2923 927.01699,1078.3425 934.08806,1051.4725 914.28907,1036.6232 893.78297,1055.008 z"
     id="path3368"
     inkscape:connector-curvature="0" />
  <path
     style="fill:none;stroke:#000000;stroke-width:1px;stroke-linecap:butt;stroke-linejoin:miter;stroke-opacity:1"
     d="M 857.01342,992.78261 885.29769,982.17601 914.28907,996.31815 917.1175,1026.0166 890.24744,1046.5227 863.37738,1038.0374 852.06367,1015.41 z"
     id="path3370"
     inkscape:connector-curvature="0" />
  <path
     style="fill:none;stroke:#000000;stroke-width:1px;stroke-linecap:butt;stroke-linejoin:miter;stroke-opacity:1"
     d="M 878.22662,931.97143 917.8246,912.87955 936.91649,928.43589 939.03781,946.82067 928.4312,968.03387 900.14693,974.39784 871.86266,950.35621 z"
     id="path3372"
     inkscape:connector-curvature="0" />
  <path
     style="fill:none;stroke:#000000;stroke-width:1px;stroke-linecap:butt;stroke-linejoin:miter;stroke-opacity:1"
     d="M 849.94235,920.65772 870.44845,921.36483 883.88348,899.44452 871.15556,879.64553 841.45707,881.05974 835.80022,898.73741 836.50732,912.17244 z"
     id="path3374"
     inkscape:connector-curvature="0" />
  <path
     style="fill:none;stroke:#000000;stroke-width:1px;stroke-linecap:butt;stroke-linejoin:miter;stroke-opacity:1"
     d="M 887.41901,852.77547 912.16775,840.04755 932.67385,847.11862 941.15913,866.2105 923.48146,885.30238 895.90429,890.25213 885.29769,876.8171 z"
     id="path3376"
     inkscape:connector-curvature="0" />
  <path
     style="fill:none;stroke:#000000;stroke-width:1px;stroke-linecap:butt;stroke-linejoin:miter;stroke-opacity:1"
     d="M 898.02561,830.14805 925.60278,837.92623 947.52309,820.95566 941.15913,791.96429 912.87486,783.479 901.56115,797.62114 895.19719,818.83434 z"
     id="path3378"
     inkscape:connector-curvature="0" />
  <path
     style="fill:none;stroke:#000000;stroke-width:1px;stroke-linecap:butt;stroke-linejoin:miter;stroke-opacity:1"
     d="M 901.56115,765.80134 934.08806,738.22417 935.50227,717.71807 914.99618,700.74751 887.41901,702.16172 866.91291,731.1531 866.91291,753.07341 890.24744,767.92266 z"
     id="path3380"
     inkscape:connector-curvature="0" />
  <path
     style="fill:none;stroke:#000000;stroke-width:1px;stroke-linecap:butt;stroke-linejoin:miter;stroke-opacity:1"
     d="M 717.00628,808.22774 821.65808,809.64196 823.07229,712.76833 715.59206,712.76833 z"
     id="path3382"
     inkscape:connector-curvature="0" />
  <path
     style="fill:none;stroke:#000000;stroke-width:1px;stroke-linecap:butt;stroke-linejoin:miter;stroke-opacity:1"
     d="M 108.89444,647.0074 113.84419,664.68507 135.0574,671.75613 149.19953,654.78557 138.59293,635.69369 118.79394,635.69369 z"
     id="path3384"
     inkscape:connector-curvature="0" />
  <path
     style="fill:none;stroke:#000000;stroke-width:1px;stroke-linecap:butt;stroke-linejoin:miter;stroke-opacity:1"
     d="M 145.664,595.3886 154.85639,580.53936 168.29141,579.12514 175.36248,591.85307 161.92745,605.9952 z"
     id="path3386"
     inkscape:connector-curvature="0" />
  <path
     style="fill:none;stroke:#000000;stroke-width:1px;stroke-linecap:butt;stroke-linejoin:miter;stroke-opacity:1"
     d="M 109.60155,566.39722 359.91735,566.39722 361.33157,760.14448 384.66609,760.14448 383.25188,526.09214 351.43207,525.38503 350.72496,516.89975 302.6417,516.19264 302.6417,537.40584 137.17872,540.23427 136.47161,487.90837 174.65538,487.90837 176.06959,465.98806 364.8671,462.45253 362.74578,415.78348 389.61584,415.07637 389.61584,380.42814 359.21025,380.42814 358.50314,295.57533 385.3732,288.50426 383.95898,263.04841 357.79603,258.80577 356.38182,242.54232 312.5412,242.54232 318.90516,416.49058 191.62594,415.78348 193.74726,155.56818 222.73864,153.44686 225.56706,123.04127 789.13117,125.16259 789.13117,151.32554 823.07229,154.15397 822.36519,416.49058 698.6215,414.36926 695.08597,238.29968 648.41692,239.00678 648.41692,258.80577 629.32504,260.21999 629.32504,284.26162 651.24535,284.26162 654.07377,378.30682 627.91082,385.37789 627.91082,411.54084 649.83113,413.66216 651.95245,457.50278 844.2855,462.45253 851.35657,477.30177 872.56977,480.8373 873.98398,538.11295 716.29917,540.94138 715.59206,518.31396 668.92302,518.31396 632.86057,519.02107 633.56768,761.55869 659.02352,762.97291 660.43773,565.69012 895.19719,565.69012 892.36876,468.81649 890.95455,444.06775 869.03423,433.46115 869.74134,120.21284 889.54033,102.53517 879.64084,78.493543 856.30631,74.958009 849.23524,82.736184 147.07821,79.20065 113.84419,98.99964 z"
     id="path3388"
     inkscape:connector-curvature="0" />
</svg>
