<?xml version="1.0" encoding="UTF-8" standalone="no"?>
<!-- Created with Inkscape (http://www.inkscape.org/) -->

<svg
   xmlns:dc="http://purl.org/dc/elements/1.1/"
   xmlns:cc="http://creativecommons.org/ns#"
   xmlns:rdf="http://www.w3.org/1999/02/22-rdf-syntax-ns#"
   xmlns:svg="http://www.w3.org/2000/svg"
   xmlns="http://www.w3.org/2000/svg"
   xmlns:xlink="http://www.w3.org/1999/xlink"
   xmlns:sodipodi="http://sodipodi.sourceforge.net/DTD/sodipodi-0.dtd"
   xmlns:inkscape="http://www.inkscape.org/namespaces/inkscape"
   width="1666"
   height="1468"
   id="svg2"
   version="1.1"
   inkscape:version="0.48.2 r9819"
   sodipodi:docname="HauntedHalls.svg">
  <defs
     id="defs4" />
  <sodipodi:namedview
     id="base"
     pagecolor="#ffffff"
     bordercolor="#666666"
     borderopacity="1.0"
     inkscape:pageopacity="0.0"
     inkscape:pageshadow="2"
     inkscape:zoom="2.8"
     inkscape:cx="813.87545"
     inkscape:cy="641.1596"
     inkscape:document-units="px"
     inkscape:current-layer="layer1"
     showgrid="false"
     inkscape:window-width="1224"
     inkscape:window-height="756"
     inkscape:window-x="56"
     inkscape:window-y="0"
     inkscape:window-maximized="1" />
  <metadata
     id="metadata7">
    <rdf:RDF>
      <cc:Work
         rdf:about="">
        <dc:format>image/svg+xml</dc:format>
        <dc:type
           rdf:resource="http://purl.org/dc/dcmitype/StillImage" />
        <dc:title />
      </cc:Work>
    </rdf:RDF>
  </metadata>
  <g
     inkscape:label="Layer 1"
     inkscape:groupmode="layer"
     id="layer1"
     transform="translate(0,415.63782)">
    <image
       y="-415.63782"
       x="0"
       id="map"
       xlink:href="file:///Users/seb/dev/FinalFighter-mac/FinalFighter-mac/HauntedHalls.png"
       height="1468"
       width="1666"
       style="opacity:0.66" />
    <path
       style="fill:none;stroke:#000000;stroke-width:1px;stroke-linecap:butt;stroke-linejoin:miter;stroke-opacity:1"
       d="M 128.28937,1386.1776 521.74379,1387.1878 521.23871,1292.7385 459.11433,1281.1218 423.75899,1271.0203 378.8072,1249.8071 337.39095,1225.0583 297.48992,1194.2487 269.71073,1165.9644 243.95184,1134.1446 222.73864,1095.7588 197.9899,1047.2715 179.30208,990.19785 165.15994,938.68007 162.12948,896.25366 164.65486,850.79679 169.70563,824.02775 187.3833,769.98459 199.50513,749.78154 214.65742,720.48712 224.25387,703.8196 214.15234,697.75868 218.69803,688.16223 227.7894,685.13178 235.87062,687.65716 236.88077,695.73838 236.88077,706.34498 202.53559,765.94398 182.83761,827.56329 177.28177,883.12168 179.80715,935.64961 190.41375,981.10647 210.11173,1039.6953 234.35539,1091.7182 260.11428,1132.1243 306.07622,1185.1573 330.31988,1207.8857 361.12954,1228.5938 396.98995,1247.7867 435.88082,1263.9492 476.28693,1273.0406 513.66257,1278.5964 542.95699,1280.1116 543.96715,1292.2335 532.85547,1291.7284 533.36054,1394.2589 122.73353,1394.7639 138.3909,1396.7842 139.90613,1409.4112 72.225907,1409.9162 74.751288,272.48446 112.63201,270.46416 133.34014,267.93878 143.94674,275.51492 160.10918,291.17228 184.35284,321.47686 206.5762,351.78144 225.76909,380.06571 250.01276,420.97689 270.21581,452.79669 279.81226,466.93883 290.92393,504.81955 306.07622,573.00484 303.55084,584.6216 295.46962,594.72312 283.34779,598.76373 268.70058,594.72312 258.59905,581.08606 259.6092,569.46931 271.73103,562.39824 282.33764,562.90332 291.93409,571.99469 268.1955,473.50482 222.23356,403.80429 205.06097,372.99464 184.35284,344.20529 137.88582,289.15198 124.24876,294.20274 96.974644,291.67736 96.469568,1366.4797 109.09647,1361.934 119.198,1364.9644 126.77414,1373.0457 127.27922,1380.1167 z"
       id="path3071"
       inkscape:connector-curvature="0"
       transform="translate(0,-415.63782)" />
    <path
       style="fill:none;stroke:#000000;stroke-width:1px;stroke-linecap:butt;stroke-linejoin:miter;stroke-opacity:1"
       d="M 543.46207,1114.9517 669.22606,1021.5126 669.73114,837.15974 672.25652,827.05821 677.81236,820.49222 692.45957,819.48207 693.46972,781.09627 697.51033,748.26631 708.62201,716.44651 731.35044,674.0201 745.99766,659.37289 770.24132,643.71552 794.99005,633.10892 818.22356,626.54293 841.45707,631.08862 864.1855,642.20029 885.90378,654.32212 902.06622,668.96934 915.70328,689.67746 924.79466,708.36529 933.38095,735.6394 939.44187,748.77139 943.98755,774.0252 944.99771,795.2384 945.50278,819.98714 959.13984,820.99729 963.68553,826.55313 967.72614,832.10897 968.73629,845.24096 969.24137,1022.5227 1088.4394,1112.4263 1089.4495,1115.9618 1095.5104,1115.9618 1135.4115,1109.9009 1148.0384,1105.3552 1174.8074,1093.7385 1194.5054,1081.6167 1209.6577,1068.9897 1224.3049,1054.8476 1236.9318,1041.7156 1245.5181,1028.0786 1255.1145,1010.4009 1261.1755,996.25876 1264.2059,977.57094 1263.1958,962.92373 1261.1755,946.25621 1257.6399,931.10392 1251.0739,910.39579 1240.9724,888.67751 1231.376,869.98969 1221.2744,854.33233 1212.1831,842.71557 1206.6272,837.66481 1198.0409,837.66481 1192.4851,843.72573 1191.4749,852.31202 1196.0206,857.36279 1201.5765,858.87801 1209.6577,858.87801 1217.7389,870.99985 1231.376,893.2232 1243.4978,922.51763 1251.0739,949.79174 1253.0942,971.51002 1252.0841,988.68262 1244.0029,1010.4009 1233.9013,1027.0684 1221.7795,1042.2207 1202.5866,1061.9187 1179.3531,1079.0913 1155.6145,1090.2029 1133.3912,1098.2842 1109.6526,1102.3248 983.88858,1009.8958 983.88858,878.07091 988.93934,878.07091 1004.5967,898.77904 1010.1525,899.78919 1011.6678,897.26381 1009.1424,893.72828 993.99011,874.0303 1016.7185,873.02015 1021.2642,873.02015 1021.7693,868.47446 1018.7388,866.45416 1015.7084,867.96939 995.50533,867.46431 994.49518,864.43385 1007.1221,848.27141 1012.1729,846.25111 1011.6678,841.70542 1007.1221,840.69527 1004.5967,843.72573 989.44442,861.4034 983.3835,861.90847 983.3835,826.55313 978.83782,816.45161 970.25152,807.86531 958.63477,804.32978 958.63477,769.47951 954.08908,739.68001 947.01801,724.02265 938.93679,696.24345 922.26927,666.44395 900.55099,644.2206 874.7921,628.56323 849.53829,616.94648 827.31494,610.88556 827.31494,607.85511 843.47738,595.2282 848.02306,593.2079 847.51799,588.66221 844.48753,587.65206 839.94184,588.15713 839.43677,591.18759 821.7591,605.32973 820.74894,582.09622 822.26417,578.05561 819.23371,576.0353 815.69818,577.04545 815.1931,581.08606 816.20326,583.61145 817.21341,602.80434 814.18295,604.31957 797.51543,590.68251 794.48498,586.6419 790.44437,588.15713 789.93929,592.19774 794.48498,594.72312 809.13219,606.33988 809.63727,611.39064 783.3733,618.96679 752.56365,633.614 728.31999,650.28151 712.15754,673.51502 699.53064,698.26376 693.9748,716.95158 685.3885,737.15463 680.84282,758.36784 679.32759,772.0049 678.82251,805.33993 668.21591,806.85516 659.62961,813.92623 654.57885,826.04806 654.57885,862.41355 646.49763,861.90847 633.36565,845.74603 631.34534,841.70542 627.80981,841.70542 625.28443,845.74603 627.80981,848.27141 643.46717,866.95924 621.24382,866.95924 615.68798,865.94908 613.66767,868.97954 615.1829,872.51507 618.21336,873.52523 621.24382,872.01 643.46717,872.51507 629.32504,892.21305 626.79965,894.73843 626.79965,898.27396 630.33519,898.77904 632.86057,895.24351 647.50778,877.56584 654.07377,877.56584 654.57885,1010.4009 535.88593,1098.2842 521.23871,1097.7791 499.52043,1094.2436 476.792,1086.1623 456.08387,1074.5456 437.90113,1062.9288 422.74884,1048.2816 407.09148,1029.5938 396.48487,1009.3907 385.87827,987.67246 384.36304,967.97449 386.38335,941.71052 392.94934,917.97194 402.04071,897.26381 414.66762,872.51507 426.28437,854.33233 434.36559,855.34248 442.95189,854.8374 446.48743,847.76634 445.47727,842.71557 441.43666,836.14958 435.88082,834.63435 427.7996,835.13943 422.74884,840.69527 408.6067,861.4034 393.95949,891.70797 381.83766,918.47702 378.8072,930.59885 374.26152,947.26636 373.25137,971.51002 374.26152,989.18769 384.36304,1012.9263 398.0001,1034.6446 413.65747,1052.3222 434.36559,1071.5151 453.05342,1084.142 472.75139,1095.2537 494.46967,1102.3248 513.15749,1107.8806 z"
       id="path3073"
       inkscape:connector-curvature="0"
       transform="translate(0,-415.63782)" />
    <path
       style="fill:none;stroke:#000000;stroke-width:1px;stroke-linecap:butt;stroke-linejoin:miter;stroke-opacity:1"
       d="M 272.23611,110.86005 271.22596,79.040249 276.27672,74.999639 677.30728,76.009792 678.82251,102.77883 686.39865,114.90066 691.95449,119.44635 702.5611,126.01234 726.29968,134.09356 753.06872,143.18494 783.87838,149.75093 814.18295,153.79154 842.9723,154.29661 877.31749,152.27631 908.63222,147.73062 933.38095,142.17478 962.67538,132.07326 987.42411,112.88036 991.9698,100.25345 996.01041,74.999639 1590.9903,74.999639 1592.0004,1412.9467 1541.4928,1413.4518 1537.9573,1406.8858 1532.4014,1401.3299 1104.6018,1401.3299 1104.0967,1293.7487 1093.9952,1292.7385 1094.5003,1282.637 1142.9876,1279.1015 1186.4242,1270.5152 1232.3861,1253.3426 1265.2161,1237.6852 1291.9851,1220.0075 1316.2288,1201.3197 1343.5029,1175.0558 1368.7567,1145.2563 1388.4547,1119.4974 1404.6171,1090.708 1417.244,1064.4441 1429.8709,1033.1293 1442.4978,996.25876 1450.5791,972.0151 1456.64,938.68007 1460.6806,885.64706 1454.1146,832.61405 1445.5283,803.8247 1435.4268,771.49982 1419.2643,742.71047 1407.6476,719.47696 1397.546,702.80945 1400.0714,692.70792 1408.1526,688.16223 1415.7288,688.66731 1421.2846,693.213 1422.7999,699.77899 1420.7796,706.85006 1413.2034,705.33483 1437.4471,744.2257 1451.0841,767.96429 1465.7313,820.49222 1474.3176,870.99985 1473.8126,910.90087 1473.3075,933.12423 1464.2161,974.54048 1451.5892,1010.906 1434.9217,1055.3527 1416.2339,1095.7588 1393.5054,1136.1649 1371.2821,1160.9136 1352.5943,1182.6319 1326.3303,1206.8756 1299.5613,1227.5837 1278.8531,1241.2208 1247.5384,1258.3933 1208.6475,1273.5456 1178.848,1282.1319 1142.9876,1290.2132 1114.1983,1294.2538 1115.2084,1388.703 1540.4826,1386.6827 1540.9877,1377.0863 1544.5232,1370.0152 1550.5842,1365.9746 1559.6755,1363.4492 1566.2415,1363.4492 1572.8075,1369.5101 1572.3024,118.94127 1564.2212,125.50727 1555.6349,128.03265 1545.5334,127.0225 1538.9674,120.4565 1534.9268,111.87021 1534.9268,103.28391 1537.4522,97.222995 1542.5029,92.677309 1010.1525,92.677309 1009.6475,103.28391 1007.1221,110.86005 1001.0612,121.97173 992.97995,131.56818 980.85812,142.17478 968.23122,148.74078 957.62461,154.29661 951.05862,155.81184 960.65507,162.37783 965.20076,163.38799 966.21091,166.92352 963.68553,168.94383 958.63477,166.41844 944.49263,157.83215 937.42156,159.34738 940.9571,179.55043 942.9774,182.58089 942.9774,186.6215 938.43172,186.6215 936.91649,181.57073 932.87588,160.35753 928.33019,162.88291 918.22866,177.02505 915.19821,180.56058 911.66267,180.56058 911.1576,177.02505 913.68298,173.99459 920.75405,164.39814 894.49008,168.43875 870.75149,172.47936 829.33524,173.99459 799.53574,173.99459 767.71593,168.94383 736.40121,161.36768 744.48243,173.99459 747.00781,177.53012 745.99766,180.56058 741.45197,179.55043 739.43166,175.50982 728.82506,159.85245 725.28953,159.85245 720.74384,181.57073 720.74384,186.6215 715.188,184.60119 715.188,178.54028 720.74384,157.83215 717.71338,156.31692 698.52049,167.4286 692.45957,169.4489 692.45957,164.39814 695.9951,163.89306 711.65247,153.79154 689.93419,144.19509 672.7616,131.56818 662.66007,118.4362 657.10423,104.29406 656.59915,93.182385 289.4087,91.16208 292.43916,117.42605 292.43916,129.54788 289.91378,137.12402 285.87317,164.39814 334.36049,212.88546 360.11938,235.10882 384.36304,252.78649 426.78945,286.6266 454.56865,307.8398 514.67272,330.56823 551.03821,342.18499 540.43161,331.07331 540.43161,321.47686 548.00776,312.38549 556.08898,311.88041 564.67527,311.88041 569.72604,316.4261 573.76665,323.49717 574.27172,331.07331 573.76665,341.67991 568.21081,350.26621 560.63466,354.81189 552.04837,355.82205 446.9925,319.45656 412.64731,293.19259 391.93919,274.50477 365.67522,255.31187 339.41126,234.60374 272.74119,167.93367 282.33764,147.73062 285.87317,131.56818 281.32748,120.4565 z"
       id="path3075"
       inkscape:connector-curvature="0"
       transform="translate(0,-415.63782)" />
    <path
       style="fill:none;stroke:#000000;stroke-width:1px;stroke-linecap:butt;stroke-linejoin:miter;stroke-opacity:1"
       d="M 764.28572,812.64286 764.28572,867.64286 753.92857,881.57143 760.71429,898.35714 776.78572,901.92857 786.42857,891.92857 843.21429,890.85714 857.14286,902.28571 872.85714,892.64286 872.85714,880.5 863.92857,871.21429 864.28572,812.64286 864.28572,812.64286 873.57143,800.14286 868.57143,790.5 854.64286,784.07143 843.92857,794.78571 783.92857,794.07143 769.28572,784.78571 769.28572,784.78571 758.21429,792.28571 755.71429,804.07143 z"
       id="path2986"
       inkscape:connector-curvature="0"
       transform="translate(0,-415.63782)" />
  </g>
</svg>
