<?xml version="1.0" encoding="UTF-8" standalone="no"?>
<!-- Created with Inkscape (http://www.inkscape.org/) -->

<svg
   xmlns:dc="http://purl.org/dc/elements/1.1/"
   xmlns:cc="http://creativecommons.org/ns#"
   xmlns:rdf="http://www.w3.org/1999/02/22-rdf-syntax-ns#"
   xmlns:svg="http://www.w3.org/2000/svg"
   xmlns="http://www.w3.org/2000/svg"
   xmlns:sodipodi="http://sodipodi.sourceforge.net/DTD/sodipodi-0.dtd"
   xmlns:inkscape="http://www.inkscape.org/namespaces/inkscape"
   id="svg2"
   version="1.1"
   inkscape:version="0.48.1 r9760"
   width="625"
   height="625"
   xml:space="preserve"
   sodipodi:docname="ff.svg"><metadata
     id="metadata8"><rdf:RDF><cc:Work
         rdf:about=""><dc:format>image/svg+xml</dc:format><dc:type
           rdf:resource="http://purl.org/dc/dcmitype/StillImage" /><dc:title></dc:title></cc:Work></rdf:RDF></metadata><defs
     id="defs6"><clipPath
       clipPathUnits="userSpaceOnUse"
       id="clipPath16"><path
         d="M 8.428,22.429 C 8.428,15.802 13.801,10.428 20.429,10.428 L 20.429,10.428 478.714,10.428 C 485.341,10.428 490.714,15.802 490.714,22.429 L 490.714,22.429 490.714,389.883 C 437.261,363.933 349.37,347 250,347 L 250,347 C 150.091,347 61.794,364.12 8.428,390.308 L 8.428,390.308 8.428,22.429 z"
         id="path18" /></clipPath><linearGradient
       x1="0"
       y1="0"
       x2="1"
       y2="0"
       gradientUnits="userSpaceOnUse"
       gradientTransform="matrix(-0.5712433,-417.14304,-417.14304,0.5712433,249.95752,488.71875)"
       spreadMethod="pad"
       id="linearGradient28"><stop
         style="stop-opacity:0.71001755;stop-color:#ffffff"
         offset="0"
         id="stop30" /><stop
         style="stop-opacity:1;stop-color:#ffffff"
         offset="1"
         id="stop32" /></linearGradient><mask
       maskUnits="userSpaceOnUse"
       x="0"
       y="0"
       width="1"
       height="1"
       id="mask34"><g
         id="g36"><g
           id="g38"><g
             id="g40"><g
               id="g42"><path
                 d="M -32768,32767 32767,32767 32767,-32767 -32768,-32767 -32768,32767 z"
                 style="fill:url(#linearGradient28);stroke:none"
                 id="path44" /></g></g></g></g></mask><linearGradient
       x1="0"
       y1="0"
       x2="1"
       y2="0"
       gradientUnits="userSpaceOnUse"
       gradientTransform="matrix(-0.5712433,-417.14304,-417.14304,0.5712433,249.95752,488.71875)"
       spreadMethod="pad"
       id="linearGradient50"><stop
         style="stop-color:#184c55;stop-opacity:1;"
         offset="0"
         id="stop52" /><stop
         style="stop-color:#0d1d34;stop-opacity:1;"
         offset="1"
         id="stop54" /></linearGradient><clipPath
       clipPathUnits="userSpaceOnUse"
       id="clipPath62"><path
         d="M 20.429,490.429 C 13.801,490.429 8.428,485.056 8.428,478.428 L 8.428,478.428 8.428,390.308 C 61.794,364.12 150.091,347 250,347 L 250,347 C 349.37,347 437.261,363.933 490.714,389.883 L 490.714,389.883 490.714,478.428 C 490.714,485.056 485.341,490.429 478.714,490.429 L 478.714,490.429 20.429,490.429 z"
         id="path64" /></clipPath><linearGradient
       x1="0"
       y1="0"
       x2="1"
       y2="0"
       gradientUnits="userSpaceOnUse"
       gradientTransform="matrix(-0.5712433,-417.14307,-417.14307,0.5712433,249.646,488.71924)"
       spreadMethod="pad"
       id="linearGradient74"><stop
         style="stop-opacity:0.71001755;stop-color:#ffffff"
         offset="0"
         id="stop76" /><stop
         style="stop-opacity:1;stop-color:#ffffff"
         offset="1"
         id="stop78" /></linearGradient><mask
       maskUnits="userSpaceOnUse"
       x="0"
       y="0"
       width="1"
       height="1"
       id="mask80"><g
         id="g82"><g
           id="g84"><g
             id="g86"><g
               id="g88"><path
                 d="M -32768,32767 32767,32767 32767,-32767 -32768,-32767 -32768,32767 z"
                 style="fill:url(#linearGradient74);stroke:none"
                 id="path90" /></g></g></g></g></mask><linearGradient
       x1="0"
       y1="0"
       x2="1"
       y2="0"
       gradientUnits="userSpaceOnUse"
       gradientTransform="matrix(-0.5712433,-417.14307,-417.14307,0.5712433,249.646,488.71924)"
       spreadMethod="pad"
       id="linearGradient96"><stop
         style="stop-opacity:1;stop-color:#66c4d3"
         offset="0"
         id="stop98" /><stop
         style="stop-opacity:1;stop-color:#2a5ca5"
         offset="1"
         id="stop100" /></linearGradient><linearGradient
       x1="0"
       y1="0"
       x2="1"
       y2="0"
       gradientUnits="userSpaceOnUse"
       gradientTransform="matrix(-0.2416687,-176.47736,-176.47736,0.2416687,249.69434,524.16357)"
       spreadMethod="pad"
       id="linearGradient116"><stop
         style="stop-color:#ffffff;stop-opacity:1;"
         offset="0"
         id="stop118" /><stop
         style="stop-color:#163841;stop-opacity:1;"
         offset="1"
         id="stop120" /></linearGradient><clipPath
       clipPathUnits="userSpaceOnUse"
       id="clipPath128"><path
         d="M 0,500 500,500 500,0 0,0 0,500 z"
         id="path130" /></clipPath><clipPath
       clipPathUnits="userSpaceOnUse"
       id="clipPath136"><path
         d="M 46.6636,477.201 465.041,477.201 465.041,-8.38379 46.6636,-8.38379 46.6636,477.201 z"
         id="path138" /></clipPath></defs><sodipodi:namedview
     pagecolor="#ffffff"
     bordercolor="#666666"
     borderopacity="1"
     objecttolerance="10"
     gridtolerance="10"
     guidetolerance="10"
     inkscape:pageopacity="0"
     inkscape:pageshadow="2"
     inkscape:window-width="1137"
     inkscape:window-height="751"
     id="namedview4"
     showgrid="false"
     inkscape:zoom="0.70710678"
     inkscape:cx="419.18123"
     inkscape:cy="357.84957"
     inkscape:window-x="100"
     inkscape:window-y="0"
     inkscape:window-maximized="0"
     inkscape:current-layer="g10" /><g
     id="g10"
     inkscape:groupmode="layer"
     inkscape:label="p4"
     transform="matrix(1.25,0,0,-1.25,0,625)"><rect
       style="opacity:0.81000001;fill:#000000"
       id="rect3277"
       width="481.96396"
       height="481.96396"
       x="8"
       y="-489.96396"
       transform="scale(1,-1)"
       ry="23.758787" /><g
       transform="matrix(1,0,0,-1,-1.1313708,0)"
       style="font-size:32px;font-style:normal;font-variant:normal;font-weight:bold;font-stretch:normal;line-height:125%;letter-spacing:0px;word-spacing:0px;fill:#000000;fill-opacity:1;stroke:none;font-family:Stencil Std;-inkscape-font-specification:Stencil Std Bold"
       id="text3279"><path
         d="M 80.968945,-164.81629 C 80.968945,-152.9763 81.288934,-151.05628 70.088945,-147.53629 65.928949,-146.25629 63.048945,-143.37628 63.048945,-138.89629 63.048945,-129.6163 73.608946,-128.97629 74.888945,-128.97629 L 165.44894,-128.97629 C 166.72894,-128.97629 177.28894,-129.6163 177.28894,-138.89629 177.28894,-143.37628 174.40894,-146.25629 170.24894,-147.53629 159.04896,-151.05628 159.36894,-152.9763 159.36894,-164.81629 L 159.36894,-368.33629 74.888945,-368.33629 C 73.608946,-368.33629 63.048945,-367.69628 63.048945,-358.41629 63.048945,-353.93629 65.928949,-351.05629 70.088945,-349.77629 81.288934,-346.25629 80.968945,-344.33628 80.968945,-332.49629 L 80.968945,-164.81629 M 173.76894,-349.77629 C 201.92892,-345.29629 218.24895,-329.61626 226.56894,-303.69629 228.16894,-298.89629 229.76895,-295.69629 235.20894,-295.69629 244.80894,-295.69629 245.12894,-301.77629 245.12894,-303.37629 L 245.12894,-368.33629 173.76894,-368.33629 173.76894,-349.77629 M 173.76894,-241.61629 C 187.20893,-238.09629 193.28895,-225.61628 196.16894,-213.45629 197.76894,-208.01629 199.68895,-202.89629 206.40894,-202.89629 216.32893,-202.89629 214.72894,-214.41629 214.72894,-216.97629 L 214.72894,-286.09629 C 214.72894,-288.65629 216.32893,-300.17629 206.40894,-300.17629 199.68895,-300.17629 197.76894,-295.05628 196.16894,-289.61629 193.28895,-277.4563 187.20893,-264.97628 173.76894,-261.45629 L 173.76894,-241.61629"
         style="font-size:320px;font-family:Stencil Std;-inkscape-font-specification:Stencil Std Bold;fill:#ffffff"
         id="path3284"
         inkscape:connector-curvature="0" /><path
         d="M 278.46894,-164.81629 C 278.46894,-152.9763 278.78893,-151.05628 267.58894,-147.53629 263.42895,-146.25629 260.54894,-143.37628 260.54894,-138.89629 260.54894,-129.6163 271.10895,-128.97629 272.38894,-128.97629 L 362.94894,-128.97629 C 364.22894,-128.97629 374.78894,-129.6163 374.78894,-138.89629 374.78894,-143.37628 371.90894,-146.25629 367.74894,-147.53629 356.54896,-151.05628 356.86894,-152.9763 356.86894,-164.81629 L 356.86894,-368.33629 272.38894,-368.33629 C 271.10895,-368.33629 260.54894,-367.69628 260.54894,-358.41629 260.54894,-353.93629 263.42895,-351.05629 267.58894,-349.77629 278.78893,-346.25629 278.46894,-344.33628 278.46894,-332.49629 L 278.46894,-164.81629 M 371.26894,-349.77629 C 399.42892,-345.29629 415.74895,-329.61626 424.06894,-303.69629 425.66894,-298.89629 427.26895,-295.69629 432.70894,-295.69629 442.30894,-295.69629 442.62894,-301.77629 442.62894,-303.37629 L 442.62894,-368.33629 371.26894,-368.33629 371.26894,-349.77629 M 371.26894,-241.61629 C 384.70893,-238.09629 390.78895,-225.61628 393.66894,-213.45629 395.26894,-208.01629 397.18895,-202.89629 403.90894,-202.89629 413.82893,-202.89629 412.22894,-214.41629 412.22894,-216.97629 L 412.22894,-286.09629 C 412.22894,-288.65629 413.82893,-300.17629 403.90894,-300.17629 397.18895,-300.17629 395.26894,-295.05628 393.66894,-289.61629 390.78895,-277.4563 384.70893,-264.97628 371.26894,-261.45629 L 371.26894,-241.61629"
         style="font-size:320px;font-family:Stencil Std;-inkscape-font-specification:Stencil Std Bold;fill:#ffffff"
         id="path3286"
         inkscape:connector-curvature="0" /></g></g></svg>